<?xml version="1.0" encoding="UTF-8"?>
<!DOCTYPE svg PUBLIC "-//W3C//DTD SVG 1.1//EN" "http://www.w3.org/Graphics/SVG/1.1/DTD/svg11.dtd">
<svg xmlns="http://www.w3.org/2000/svg" fill="#4b84ab" version="1.1" width="300px" height="306px" style="shape-rendering:geometricPrecision; text-rendering:geometricPrecision; image-rendering:optimizeQuality; fill-rule:evenodd; clip-rule:evenodd" xmlns:xlink="http://www.w3.org/1999/xlink">
<g><path style="opacity:0.991" d="M 61.5,-0.5 C 131.167,-0.5 200.833,-0.5 270.5,-0.5C 272.475,0.646381 273.975,2.31305 275,4.5C 275.667,7.83333 275.667,11.1667 275,14.5C 269,22.5 263,30.5 257,38.5C 256.975,66.8949 256.309,95.2283 255,123.5C 253.037,129.731 248.87,133.564 242.5,135C 230.838,135.5 219.171,135.667 207.5,135.5C 204.495,106.495 188.495,90.4946 159.5,87.5C 129.843,89.824 113.843,105.824 111.5,135.5C 99.8286,135.667 88.1619,135.5 76.5,135C 70.1345,133.297 65.6345,129.464 63,123.5C 61.5225,82.2143 61.0225,40.8809 61.5,-0.5 Z"/></g>
<g><path style="opacity:0.924" d="M 274.5,57.5 C 279.511,57.3341 284.511,57.5007 289.5,58C 291.286,58.7845 292.786,59.9512 294,61.5C 295.122,69.9278 295.622,78.4278 295.5,87C 295.637,95.2649 295.137,103.432 294,111.5C 292.833,112.667 291.667,113.833 290.5,115C 285.246,116.271 279.913,116.771 274.5,116.5C 274.5,96.8333 274.5,77.1667 274.5,57.5 Z"/></g>
<g><path style="opacity:0.971" d="M 151.5,105.5 C 173.709,103.222 186.376,113.056 189.5,135C 184.552,160.934 169.552,169.6 144.5,161C 128.873,149.992 125.373,135.825 134,118.5C 138.345,112.086 144.178,107.753 151.5,105.5 Z"/></g>
<g><path style="opacity:0.926" d="M 139.5,178.5 C 152.518,183.659 165.518,183.825 178.5,179C 179.817,188.44 179.817,197.94 178.5,207.5C 165.819,202.209 153.152,202.209 140.5,207.5C 139.502,197.856 139.168,188.19 139.5,178.5 Z"/></g>
<g><path style="opacity:0.979" d="M 3.5,201.5 C 16.6855,205.426 30.0188,208.76 43.5,211.5C 43.6666,237.835 43.5,264.169 43,290.5C 30.0207,294.203 16.8541,297.203 3.5,299.5C 3.5,266.833 3.5,234.167 3.5,201.5 Z"/></g>
<g><path style="opacity:0.971" d="M 152.5,221.5 C 174.275,219.795 186.608,229.629 189.5,251C 188.455,265.419 181.122,275.085 167.5,280C 150.565,282.95 138.398,276.783 131,261.5C 126.418,241.69 133.585,228.357 152.5,221.5 Z"/></g>
<g><path style="opacity:0.957" d="M 61.5,231.5 C 79.5123,231.167 97.5123,231.5 115.5,232.5C 110.254,245.486 110.254,258.486 115.5,271.5C 97.5,271.5 79.5,271.5 61.5,271.5C 61.5,258.167 61.5,244.833 61.5,231.5 Z"/></g>
</svg>
