<?xml version="1.0" encoding="UTF-8"?>
<!DOCTYPE svg PUBLIC "-//W3C//DTD SVG 1.1//EN" "http://www.w3.org/Graphics/SVG/1.1/DTD/svg11.dtd">
<svg xmlns="http://www.w3.org/2000/svg" fill="#4b84ab" version="1.1" width="300px" height="323px" style="shape-rendering:geometricPrecision; text-rendering:geometricPrecision; image-rendering:optimizeQuality; fill-rule:evenodd; clip-rule:evenodd" xmlns:xlink="http://www.w3.org/1999/xlink">
<g><path style="opacity:0.978"  d="M 148.5,-0.5 C 154.833,-0.5 161.167,-0.5 167.5,-0.5C 173.011,1.26041 178.011,4.09374 182.5,8C 214.69,34.1633 246.523,60.6633 278,87.5C 285.802,100.753 286.469,114.419 280,128.5C 270.459,154.959 260.625,181.292 250.5,207.5C 236.802,196.09 221.135,188.59 203.5,185C 198.447,184.783 193.447,184.283 188.5,183.5C 187.264,184.246 185.93,184.579 184.5,184.5C 191.18,163.958 198.347,143.625 206,123.5C 206.667,122.167 206.667,120.833 206,119.5C 184.041,101.877 162.375,83.877 141,65.5C 118.385,79.8894 95.5512,93.8894 72.5,107.5C 72.4459,126.399 72.4459,145.399 72.5,164.5C 66.1667,164.5 59.8333,164.5 53.5,164.5C 53.5,170.833 53.5,177.167 53.5,183.5C 46.8333,183.5 40.1667,183.5 33.5,183.5C 33.5,177.167 33.5,170.833 33.5,164.5C 27.1667,164.5 20.8333,164.5 14.5,164.5C 14.3334,147.163 14.5001,129.83 15,112.5C 15.2445,106.76 17.2445,101.76 21,97.5C 57.8945,67.9715 95.0611,38.8048 132.5,10C 137.085,5.21739 142.418,1.71739 148.5,-0.5 Z M 154.5,19.5 C 169.372,19.8667 174.872,27.2 171,41.5C 162.333,50.8333 153.667,50.8333 145,41.5C 141.125,30.9219 144.292,23.5885 154.5,19.5 Z M 248.5,93.5 C 261.798,96.1033 266.298,103.77 262,116.5C 253.963,125.366 245.63,125.699 237,117.5C 231.974,105.22 235.807,97.22 248.5,93.5 Z"/></g>
<g><path style="opacity:0.989"  d="M 179.5,201.5 C 220.196,199.595 247.03,217.928 260,256.5C 261.399,271.79 261.899,287.123 261.5,302.5C 267.833,302.5 274.167,302.5 280.5,302.5C 280.5,308.5 280.5,314.5 280.5,320.5C 206.833,320.5 133.167,320.5 59.5,320.5C 59.5,314.5 59.5,308.5 59.5,302.5C 78.1667,302.5 96.8333,302.5 115.5,302.5C 115.177,288.133 115.677,273.799 117,259.5C 125.501,226.831 146.334,207.498 179.5,201.5 Z M 183.5,250.5 C 195.823,248.991 201.323,254.324 200,266.5C 193.693,274.831 186.693,275.497 179,268.5C 175.816,264.129 175.816,259.795 179,255.5C 180.707,253.963 182.207,252.296 183.5,250.5 Z"/></g>
</svg>
