<?xml version="1.0" encoding="UTF-8"?>
<!DOCTYPE svg PUBLIC "-//W3C//DTD SVG 1.1//EN" "http://www.w3.org/Graphics/SVG/1.1/DTD/svg11.dtd">
<svg xmlns="http://www.w3.org/2000/svg" version="1.1" width="360px" fill="#4b84ab" height="360px" style="shape-rendering:geometricPrecision; text-rendering:geometricPrecision; image-rendering:optimizeQuality; fill-rule:evenodd; clip-rule:evenodd" xmlns:xlink="http://www.w3.org/1999/xlink">
<g><path style="opacity:0.991"  d="M 143.5,-0.5 C 167.5,-0.5 191.5,-0.5 215.5,-0.5C 216.833,0.933498 218.333,2.26683 220,3.5C 222.49,13.1251 224.823,22.7918 227,32.5C 227.833,34.6667 229.333,36.1667 231.5,37C 237.264,38.2657 242.597,40.4324 247.5,43.5C 255.707,38.1263 264.04,32.9596 272.5,28C 276.211,26.2909 279.878,26.2909 283.5,28C 299.333,43.8333 315.167,59.6667 331,75.5C 332.709,79.1221 332.709,82.7888 331,86.5C 326.031,94.9659 320.865,103.299 315.5,111.5C 318.495,117.325 320.995,123.325 323,129.5C 324.8,131.317 326.966,132.484 329.5,133C 338.248,134.687 346.915,136.687 355.5,139C 357.07,140.397 358.404,141.897 359.5,143.5C 359.5,167.5 359.5,191.5 359.5,215.5C 357.954,218.2 355.621,220.033 352.5,221C 343.833,223 335.167,225 326.5,227C 324.333,227.833 322.833,229.333 322,231.5C 320.734,237.264 318.568,242.597 315.5,247.5C 320.865,255.701 326.031,264.034 331,272.5C 332.709,276.211 332.709,279.878 331,283.5C 315.167,299.333 299.333,315.167 283.5,331C 279.878,332.709 276.211,332.709 272.5,331C 264.014,326 255.68,320.833 247.5,315.5C 241.725,318.482 235.725,320.982 229.5,323C 227.683,324.8 226.516,326.966 226,329.5C 224.49,337.206 222.823,344.873 221,352.5C 220.033,355.621 218.2,357.954 215.5,359.5C 191.5,359.5 167.5,359.5 143.5,359.5C 141.897,358.404 140.397,357.07 139,355.5C 136.67,345.842 134.337,336.175 132,326.5C 131.167,324.333 129.667,322.833 127.5,322C 121.736,320.734 116.403,318.568 111.5,315.5C 103.365,320.47 95.3655,325.636 87.5,331C 83.4151,332.416 79.4151,332.416 75.5,331C 59.6667,315.167 43.8333,299.333 28,283.5C 26.2909,279.878 26.2909,276.211 28,272.5C 32.982,264.025 38.1487,255.692 43.5,247.5C 40.5179,241.725 38.0179,235.725 36,229.5C 34.2002,227.683 32.0336,226.516 29.5,226C 21.7936,224.49 14.1269,222.823 6.5,221C 3.37935,220.033 1.04602,218.2 -0.5,215.5C -0.5,191.5 -0.5,167.5 -0.5,143.5C 0.596413,141.897 1.92975,140.397 3.5,139C 13.1251,136.51 22.7918,134.177 32.5,132C 34.6667,131.167 36.1667,129.667 37,127.5C 38.2598,121.789 40.4265,116.456 43.5,111.5C 38.5216,103.36 33.3549,95.3596 28,87.5C 26.5841,83.4151 26.5841,79.4151 28,75.5C 43.8333,59.6667 59.6667,43.8333 75.5,28C 79.1221,26.2909 82.7888,26.2909 86.5,28C 94.9601,32.9596 103.293,38.1263 111.5,43.5C 117.325,40.505 123.325,38.005 129.5,36C 131.317,34.2002 132.484,32.0336 133,29.5C 134.51,21.7936 136.177,14.1269 138,6.5C 138.967,3.37935 140.8,1.04602 143.5,-0.5 Z M 172.5,115.5 C 211.285,115.638 234.785,134.638 243,172.5C 244.233,190.06 239.566,205.726 229,219.5C 202.818,246.903 173.651,250.57 141.5,230.5C 118.782,211.815 111.282,188.149 119,159.5C 128.674,134.766 146.507,120.1 172.5,115.5 Z"/></g>
</svg>
