<svg xmlns="http://www.w3.org/2000/svg" width="275" height="275" viewBox="0 0 275 275">
  <defs>
    <style>

      .cls-1 {
        fill-rule: evenodd;
      }

      .cls-2 {
        fill: none;
        stroke: #000000;
        stroke-width: 11px;
      }
    </style>
  </defs>
  <path class="cls-1" d="M160,58c3.716-.56,7.815-0.166,11,2,5.553,3.777,8.193,12.412,5,22a39.109,39.109,0,0,1-15.487,22.643A38.06,38.06,0,0,1,144,111c-5.815-14.831-7.213-32.564,2-44C149.934,62.117,154.734,58.794,160,58ZM66,70a69.711,69.711,0,0,1,68,47,102.181,102.181,0,0,1-19,8,85.2,85.2,0,0,1-21,4c-22.544.72-51.082-10.684-55-30-1.031-5.084-.3-10.446,2-16A34.806,34.806,0,0,1,66,70Zm112,52c11.957-5.683,34.14,9.6,42,29,4.6,11.347,4.233,23.994,0,36-2.711,7.172-6.366,11.707-11,13-12.436,3.471-27.5-17.611-34-31-8.018-16.523-8.7-29.379-4-39C173.223,125.454,176.276,122.819,178,122Zm-21,0c-5.952,44.628,11.822,75.546,40,92v2c-37.424,22.378-66.034-4.542-75-38C114.021,148.225,133.127,123.647,157,122Zm-49,42c5.544,42.928,20.082,50.875,25,59a68.236,68.236,0,0,1-12-1,109.24,109.24,0,0,1-14-4,129.89,129.89,0,0,1-13-5,86.372,86.372,0,0,1-9-5A172.774,172.774,0,0,1,108,164Z"/>
  <circle class="cls-2" cx="137.5" cy="137.5" r="128.938"/>
</svg>
