<svg xmlns="http://www.w3.org/2000/svg" width="584" height="99" viewBox="0 0 584 99">
  <defs>
    <style>
      .cls-1, .cls-2 {
        fill: #fff;
        fill-rule: evenodd;
      }

      .cls-2 {
        stroke: #fff;
        stroke-linejoin: round;
        stroke-width: 1px;
      }
    </style>
  </defs>
  <path id="PERA_SWARM" data-name="PERA SWARM" class="cls-1" d="M12.7,36.7H29.8a22.66,22.66,0,0,0,7.517-1.239,18.509,18.509,0,0,0,6.154-3.511,16.48,16.48,0,0,0,4.13-5.576,17.718,17.718,0,0,0,1.528-7.517A18,18,0,0,0,47.605,11.3a17.263,17.263,0,0,0-4.13-5.7,18.414,18.414,0,0,0-6.113-3.635A21.91,21.91,0,0,0,29.8.68H0.726v6.2A3.961,3.961,0,0,0,1.965,9.767a3.961,3.961,0,0,0,2.891,1.239H28.729a8.8,8.8,0,0,1,6.03,2.106,7.352,7.352,0,0,1,2.4,5.824A7.285,7.285,0,0,1,34.8,24.719a8.868,8.868,0,0,1-6.072,2.065h-28V58.5H12.7V36.7Zm88.514-26.434a4.468,4.468,0,0,0,1.528-1.9l3.139-7.682H57.311V11.006H98.945A3.8,3.8,0,0,0,101.217,10.263ZM90.148,33.888a4.472,4.472,0,0,0,1.528-1.9l2.974-7.435H57.311V34.632H87.876A3.8,3.8,0,0,0,90.148,33.888Zm11.442,23.873a3.834,3.834,0,0,0,1.487-1.983l2.808-7.6H57.311V58.5H99.193A4.119,4.119,0,0,0,101.589,57.762Zm48.9-23.047a19.336,19.336,0,0,0,8.054-6.361,16.018,16.018,0,0,0,3.1-9.748,17.8,17.8,0,0,0-1.57-7.641,16.128,16.128,0,0,0-4.3-5.617,19.239,19.239,0,0,0-6.361-3.469,24.421,24.421,0,0,0-7.682-1.2H113.4v6.2a3.961,3.961,0,0,0,1.239,2.891,3.963,3.963,0,0,0,2.892,1.239h23.13a11.6,11.6,0,0,1,3.428.5,8.524,8.524,0,0,1,2.85,1.487,7.436,7.436,0,0,1,1.982,2.437,7.214,7.214,0,0,1,.744,3.346,7.207,7.207,0,0,1-.744,3.346,7.422,7.422,0,0,1-1.982,2.437,8.522,8.522,0,0,1-2.85,1.487,11.6,11.6,0,0,1-3.428.5H113.4V58.5h11.978V36.366h10.574a4.424,4.424,0,0,1,2.189.578A3.563,3.563,0,0,1,139.67,38.6l9.087,17.678a3.55,3.55,0,0,0,1.528,1.652,4.407,4.407,0,0,0,2.189.578h10.657ZM220.3,58.5h12.886L212.117,4.81A6.263,6.263,0,0,0,209.68,1.8,6.558,6.558,0,0,0,206,.68H194.191L171.226,58.5h12.887L202.369,12.41Zm73.644-.083a24.33,24.33,0,0,0,7.806-3.222,18.025,18.025,0,0,0,5.659-5.782,16.074,16.074,0,0,0,2.189-8.591,14.871,14.871,0,0,0-1.57-7.228,13.813,13.813,0,0,0-4.13-4.667,19.336,19.336,0,0,0-5.824-2.767,59.393,59.393,0,0,0-6.691-1.528q-3.429-.577-6.691-1.033a41.372,41.372,0,0,1-5.824-1.2,11.144,11.144,0,0,1-4.13-2.065,4.494,4.494,0,0,1-1.57-3.635,4.742,4.742,0,0,1,1.074-3.222,7.408,7.408,0,0,1,2.685-1.941,14.122,14.122,0,0,1,3.469-.991,22.041,22.041,0,0,1,3.346-.289,19.9,19.9,0,0,1,5.493.744,47.821,47.821,0,0,1,4.75,1.611q2.146,0.867,3.717,1.611a6.267,6.267,0,0,0,2.313.743,4.09,4.09,0,0,0,2.313-.785,19.146,19.146,0,0,0,2.272-1.817A26.1,26.1,0,0,0,306.7,10.18q0.99-1.156,1.734-1.9a35.969,35.969,0,0,0-11.276-6.2,38.963,38.963,0,0,0-12.6-2.148,36.245,36.245,0,0,0-8.219.95,22.568,22.568,0,0,0-7.311,3.056A16.829,16.829,0,0,0,263.787,9.4a15.606,15.606,0,0,0-2.024,8.219,14.42,14.42,0,0,0,1.57,7.1,13.65,13.65,0,0,0,4.089,4.585,18.558,18.558,0,0,0,5.782,2.685,66.911,66.911,0,0,0,6.609,1.487q3.345,0.579,6.609,1.033a36.631,36.631,0,0,1,5.782,1.239,10.611,10.611,0,0,1,4.089,2.23,5.075,5.075,0,0,1,1.57,3.924,5.287,5.287,0,0,1-1.2,3.552,8.128,8.128,0,0,1-3.015,2.189,16.187,16.187,0,0,1-3.842,1.115,23.382,23.382,0,0,1-3.758.331,21.336,21.336,0,0,1-6.526-.95,33.847,33.847,0,0,1-5.287-2.148q-2.313-1.2-3.965-2.148a5.8,5.8,0,0,0-2.561-.95,4.035,4.035,0,0,0-2.148.743,14.6,14.6,0,0,0-2.23,1.776q-1.074,1.034-2.065,2.106t-1.652,1.735a38.621,38.621,0,0,0,11.9,7.476,36.533,36.533,0,0,0,13.713,2.685A39,39,0,0,0,293.939,58.422Zm74.842-26.434q-3.841-13.216-7.807-26.517A6.506,6.506,0,0,0,358.455,2,6.786,6.786,0,0,0,354.448.68H348.17L337.431,39.836,328.923,0.68H316.7L329.253,58.5h9.665a5.925,5.925,0,0,0,3.015-.785,3.659,3.659,0,0,0,1.776-2.189L354.035,18.11l11.152,37.421a4.016,4.016,0,0,0,1.487,2.189,4.08,4.08,0,0,0,2.478.785h7.683Q372.622,45.206,368.781,31.988ZM390.465,0.68H378.322l-5.287,31.638L380.883,58.5ZM442.673,58.5h12.886L434.494,4.81A6.255,6.255,0,0,0,432.058,1.8,6.558,6.558,0,0,0,428.382.68H416.569L393.6,58.5h12.887L424.747,12.41Zm57.246-23.791a19.336,19.336,0,0,0,8.054-6.361,16.018,16.018,0,0,0,3.1-9.748,17.813,17.813,0,0,0-1.569-7.641,16.13,16.13,0,0,0-4.3-5.617,19.229,19.229,0,0,0-6.361-3.469,24.421,24.421,0,0,0-7.682-1.2H462.829v6.2a3.961,3.961,0,0,0,1.239,2.891,3.961,3.961,0,0,0,2.891,1.239h23.13a11.6,11.6,0,0,1,3.428.5,8.524,8.524,0,0,1,2.85,1.487,7.451,7.451,0,0,1,1.983,2.437,7.226,7.226,0,0,1,.743,3.346,7.219,7.219,0,0,1-.743,3.346,7.438,7.438,0,0,1-1.983,2.437,8.522,8.522,0,0,1-2.85,1.487,11.6,11.6,0,0,1-3.428.5h-27.26V58.5h11.978V36.366H485.38a4.424,4.424,0,0,1,2.189.578A3.57,3.57,0,0,1,489.1,38.6l9.086,17.678a3.547,3.547,0,0,0,1.529,1.652,4.4,4.4,0,0,0,2.189.578h10.656Zm33.208-18.752,19.082,38.412L579.635,0.68h-7.352a6.158,6.158,0,0,0-3.428.991,7.253,7.253,0,0,0-2.437,2.643L552.374,31.74,538.331,4.315a7.27,7.27,0,0,0-2.437-2.643A6.165,6.165,0,0,0,532.466.68H521.149V58.5h11.978V15.962ZM583.6,2.332l-11.978,23.13V58.5H583.6V2.332Z"/>
  <path id="EXPERIMENTATION_HUB" data-name="EXPERIMENTATION HUB" class="cls-2" d="M3.716,67.768H20.51v-1.06H2.656V96.733H20.51v-1.06H3.716V82.356H19.237V81.211H3.716V67.768ZM34.888,81.763l9.881-15.055h-1.23L34.294,80.787,25.007,66.708H23.819l9.839,15.055-9.881,14.97h1.315l9.2-14.249,9.2,14.249h1.23Zm15.99,14.97V84.774h9.584a8.773,8.773,0,0,0,9.16-8.948,8.942,8.942,0,0,0-9.2-9.118h-10.6V96.733h1.06Zm0-13.019V67.683h9.542a7.881,7.881,0,0,1,8.142,8.1,7.7,7.7,0,0,1-8.142,7.93H50.877ZM76.409,67.768H93.2v-1.06H75.349V96.733H93.2v-1.06H76.409V82.356H91.93V81.211H76.409V67.768Zm42.07,28.964-10.135-13.4h1.611c5.471,0,9.287-2.248,9.287-8.482-0.127-6.107-4.113-8.142-9.329-8.142h-10.6V96.733h1.018v-13.4h6.827l10.093,13.4h1.23ZM100.329,82.4V67.683h9.626c4.792-.085,8.27,1.781,8.27,7.209,0,5.3-2.8,7.506-8.27,7.506h-9.626Zm25.955-15.691h-1.06V96.733h1.06V66.708Zm20.145,25.275h1.442l10.771-24.512h0.382V96.733h1.06V66.708h-2.248l-10.686,24.3-10.73-24.3h-2.247V96.733h1.06V67.811l0.382-.042Zm22.606-24.215h16.793v-1.06H167.975V96.733h17.853v-1.06H169.035V82.356h15.521V81.211H169.035V67.768Zm24.556-1.06h-1.654V96.733h1.1l0.043-28.668,17.6,28.668h1.824V66.708h-1.061V95.715Zm44.869,0H217.384v1.06h10.008V96.733h1.06V67.768H238.46v-1.06ZM241.855,86H255.51L259.5,96.733h1.145L249.53,66.708h-1.7L236.723,96.733h1.145Zm6.912-18.278,6.361,17.217H242.236L248.6,67.726h0.17Zm31.214-1.018H258.9v1.06h10.008V96.733h1.061V67.768h10.008v-1.06Zm5.939,0h-1.06V96.733h1.06V66.708Zm7.21,21.925c0,5.64,5.555,8.524,11.153,8.524s11.2-2.884,11.2-8.524V74.765c0-5.64-5.6-8.481-11.2-8.481s-11.153,2.841-11.153,8.481V88.633Zm1.06-13.867c0-5.174,5-7.421,10.051-7.464,5.046,0,10.177,2.205,10.177,7.464V88.633c0,5-5.089,7.464-10.135,7.464-5.089,0-10.093-2.46-10.093-7.464V74.765Zm30.2-8.057h-1.654V96.733h1.1l0.043-28.668,17.6,28.668H343.3V66.708h-1.06V95.715Zm38.3,15.564H381.64V96.733h1.06V66.708h-1.06v14.5H362.684v-14.5h-1.06V96.733h1.06V82.272Zm28.755-15.564h-1.061v21.8c0,5.725,5.259,8.651,10.518,8.651s10.559-2.926,10.559-8.651v-21.8H410.4v21.8c0,5.089-4.792,7.633-9.5,7.633-4.75,0-9.457-2.545-9.457-7.633v-21.8Zm42.2,14.079,1.314-.721A6.7,6.7,0,0,0,437.962,74c0-4.75-3.435-7.294-7.845-7.294H419.133V96.733h10.941c5.216,0,9.2-1.824,9.33-8.015,0.042-2.672-.975-6.022-4.283-7.421Zm-13.444-.466V67.683h9.924c3.816,0,6.827,2.163,6.827,6.361,0,4.326-2.883,6.276-6.827,6.276h-9.924Zm0,15.394V81.339h9.924c5.046-.042,8.227,2.078,8.227,7.337,0,5.216-3.435,7.124-8.227,7.04h-9.924Z"/>
</svg>
